<?xml version="1.0" encoding="UTF-8" standalone="no"?>
<!-- Created with Inkscape (http://www.inkscape.org/) -->

<svg
   xmlns:dc="http://purl.org/dc/elements/1.1/"
   xmlns:cc="http://creativecommons.org/ns#"
   xmlns:rdf="http://www.w3.org/1999/02/22-rdf-syntax-ns#"
   xmlns:svg="http://www.w3.org/2000/svg"
   xmlns="http://www.w3.org/2000/svg"
   xmlns:sodipodi="http://sodipodi.sourceforge.net/DTD/sodipodi-0.dtd"
   xmlns:inkscape="http://www.inkscape.org/namespaces/inkscape"
   width="254mm"
   height="254mm"
   viewBox="0 0 254 254"
   version="1.1"
   id="svg8"
   inkscape:version="0.92.4 (5da689c313, 2019-01-14)"
   sodipodi:docname="app.svg">
  <defs
     id="defs2" />
  <sodipodi:namedview
     id="base"
     pagecolor="#ffffff"
     bordercolor="#666666"
     borderopacity="1.0"
     inkscape:pageopacity="0.0"
     inkscape:pageshadow="2"
     inkscape:zoom="0.49497475"
     inkscape:cx="518.34469"
     inkscape:cy="323.326"
     inkscape:document-units="mm"
     inkscape:current-layer="layer1"
     showgrid="true"
     inkscape:window-width="958"
     inkscape:window-height="991"
     inkscape:window-x="-8"
     inkscape:window-y="0"
     inkscape:window-maximized="0"
     inkscape:pagecheckerboard="true">
    <inkscape:grid
       type="xygrid"
       id="grid12412"
       spacingx="1.8520833"
       spacingy="1.8520833" />
  </sodipodi:namedview>
  <metadata
     id="metadata5">
    <rdf:RDF>
      <cc:Work
         rdf:about="">
        <dc:format>image/svg+xml</dc:format>
        <dc:type
           rdf:resource="http://purl.org/dc/dcmitype/StillImage" />
        <dc:title></dc:title>
      </cc:Work>
    </rdf:RDF>
  </metadata>
  <g
     inkscape:label="Layer 1"
     inkscape:groupmode="layer"
     id="layer1"
     transform="translate(0,-43)">
    <rect
       style="fill:#e9dbbd;fill-opacity:1;stroke-width:0.37693506"
       id="rect12"
       width="247.70001"
       height="247.70001"
       x="3.0238037"
       y="46.351601"
       rx="58.458519" />
    <path
       style="fill:none;stroke:#00000d;stroke-width:2.66041017;stroke-linecap:butt;stroke-linejoin:miter;stroke-miterlimit:4;stroke-dasharray:none;stroke-opacity:1"
       d="M 12.926809,212.73678 C 48.762759,194.999 61.8602,101.73607 71.174264,111.80789 c 6.457179,12.07891 11.045218,30.3508 32.874426,34.59511 22.71712,-2.41941 29.14219,-22.1128 34.86042,-33.96016 9.92705,-3.65948 6.90081,25.77928 33.2278,58.27197"
       id="path830"
       inkscape:connector-curvature="0"
       sodipodi:nodetypes="ccccc" />
    <path
       id="path855-8"
       style="fill:none;stroke:#00000d;stroke-width:2.66041017;stroke-linecap:butt;stroke-linejoin:miter;stroke-miterlimit:4;stroke-dasharray:none;stroke-opacity:1"
       d="m 179.52997,172.60843 c 2.19624,4.16263 2.34266,4.70571 5.56378,6.96853 m -36.81234,-0.61177 c 4.40414,-10.15469 5.50516,-16.8198 5.50516,-16.8198 m -29.79067,11.1519 c 2.19625,4.16263 2.34267,4.70571 5.5638,6.96851 m -22.56108,2.6935 c 1.1592,3.89774 1.69638,7.01629 3.39275,9.04333 m 42.29418,-23.19213 1.10102,-6.66511 4.77109,7.61727 3.11956,-14.91716 3.48656,14.91716 1.65153,-8.88683 5.3216,9.83898 2.75255,-11.74329 4.40408,13.01285 c 0,0 2.01853,2.85647 3.48656,-13.64762 1.46801,-16.5041 12.47816,1.90431 12.47816,1.90431 0,0 31.19539,53.00354 42.38904,56.4948 m -171.94214,4.44341 c 34.68188,-29.51694 37.25093,-52.68615 37.25093,-52.68615 l 2.93606,5.07819 1.10101,11.42591 2.75255,-15.86933 0.91753,7.93467 3.85355,-12.06069 1.46804,9.5216 2.75252,-13.96501 2.56903,8.88683 2.93607,4.12602 2.75257,-12.37808 5.13811,6.34773 5.32163,1.90433 1.65154,-7.93467 3.30307,8.25204 4.22056,-11.42591 2.38555,5.39556 3.67007,5.07819"
       inkscape:connector-curvature="0" />
    <path
       style="fill:none;stroke:#00000d;stroke-width:2.66041017;stroke-linecap:butt;stroke-linejoin:miter;stroke-miterlimit:4;stroke-dasharray:none;stroke-opacity:1"
       d="m 81.718155,131.89339 c 6.367544,14.59878 9.939573,13.2512 9.939573,13.2512"
       id="path886"
       inkscape:connector-curvature="0" />
    <path
       style="fill:none;stroke:#00000d;stroke-width:2.66041017;stroke-linecap:butt;stroke-linejoin:miter;stroke-miterlimit:4;stroke-dasharray:none;stroke-opacity:1"
       d="m 61.766529,125.08384 c 5.237845,-1.78571 3.682862,-3.01339 3.682862,-3.01339 l 2.455237,2.23215 0.900251,-2.23215 2.94629,2.56696 1.063934,-2.67856 4.010222,1.4509"
       id="path903"
       inkscape:connector-curvature="0" />
    <path
       style="fill:none;stroke:#00000d;stroke-width:2.66041017;stroke-linecap:butt;stroke-linejoin:miter;stroke-miterlimit:4;stroke-dasharray:none;stroke-opacity:1"
       d="m 132.63047,125.02092 c 5.23787,-1.78571 3.68288,-3.01339 3.68288,-3.01339 l 2.45526,2.23213 0.90024,-2.23213 2.94632,2.56696 1.06393,-2.67856 4.01024,1.45089"
       id="path903-8"
       inkscape:connector-curvature="0" />
  </g>
</svg>
