<?xml version="1.0" encoding="UTF-8" standalone="no"?>
<!-- Created with Inkscape (http://www.inkscape.org/) -->

<svg
   xmlns:dc="http://purl.org/dc/elements/1.1/"
   xmlns:cc="http://creativecommons.org/ns#"
   xmlns:rdf="http://www.w3.org/1999/02/22-rdf-syntax-ns#"
   xmlns:svg="http://www.w3.org/2000/svg"
   xmlns="http://www.w3.org/2000/svg"
   xmlns:sodipodi="http://sodipodi.sourceforge.net/DTD/sodipodi-0.dtd"
   xmlns:inkscape="http://www.inkscape.org/namespaces/inkscape"
   width="206mm"
   height="89mm"
   viewBox="0 0 206 89"
   version="1.1"
   id="svg8"
   inkscape:version="0.92.4 (5da689c313, 2019-01-14)"
   sodipodi:docname="montezuma-2.svg">
  <defs
     id="defs2" />
  <sodipodi:namedview
     id="base"
     pagecolor="#ffffff"
     bordercolor="#666666"
     borderopacity="1.0"
     inkscape:pageopacity="0.0"
     inkscape:pageshadow="2"
     inkscape:zoom="1.4"
     inkscape:cx="379.77134"
     inkscape:cy="269.97382"
     inkscape:document-units="mm"
     inkscape:current-layer="layer1"
     showgrid="false"
     inkscape:pagecheckerboard="true"
     inkscape:window-width="1920"
     inkscape:window-height="1001"
     inkscape:window-x="-9"
     inkscape:window-y="-9"
     inkscape:window-maximized="1" />
  <metadata
     id="metadata5">
    <rdf:RDF>
      <cc:Work
         rdf:about="">
        <dc:format>image/svg+xml</dc:format>
        <dc:type
           rdf:resource="http://purl.org/dc/dcmitype/StillImage" />
        <dc:title></dc:title>
      </cc:Work>
    </rdf:RDF>
  </metadata>
  <g
     inkscape:label="Layer 1"
     inkscape:groupmode="layer"
     id="layer1"
     transform="translate(0,-208)">
    <path
       style="fill:none;stroke:#e9dbbd;stroke-width:1.23000002;stroke-linecap:butt;stroke-linejoin:miter;stroke-miterlimit:4;stroke-dasharray:none;stroke-opacity:1"
       d="M 3.6663686,286.26665 C 34.362272,275.70461 45.581105,220.17084 53.559222,226.16811 c 5.531008,7.19243 9.460977,18.07251 28.159202,20.5998 19.458626,-1.44064 24.962096,-13.16716 29.860116,-20.22172 8.50314,-2.17904 5.91098,15.35038 28.46169,34.6983"
       id="path830"
       inkscape:connector-curvature="0"
       sodipodi:nodetypes="ccccc" />
    <path
       id="path855-8"
       style="fill:none;stroke:#e9dbbd;stroke-width:1.23044527;stroke-linecap:butt;stroke-linejoin:miter;stroke-miterlimit:4;stroke-dasharray:none;stroke-opacity:1"
       d="m 146.37284,262.37205 c 1.88123,2.47866 2.00665,2.80204 4.76575,4.14944 m -31.53208,-0.36428 c 3.77242,-6.04665 4.71551,-10.01542 4.71551,-10.01542 m -25.51758,6.64044 c 1.88123,2.47866 2.00665,2.80204 4.76575,4.14944 m -19.32497,1.60385 c 0.99292,2.32093 1.45305,4.17788 2.9061,5.38489 m 36.22761,-13.80985 0.94309,-3.96877 4.08674,4.53574 2.67209,-8.88249 2.98646,8.88249 1.41464,-5.2917 4.55828,5.85866 2.35773,-6.9926 3.77237,7.74856 c 0,0 1.729,1.7009 2.98647,-8.12653 1.25745,-9.82744 10.68838,1.13393 10.68838,1.13393 0,0 26.72095,31.56119 36.30907,33.64007 m -147.279682,2.64585 c 29.707419,-17.57599 31.907969,-31.3722 31.907969,-31.3722 l 2.514914,3.02383 0.943089,6.80361 2.35773,-9.44946 0.78592,4.72473 3.30081,-7.18159 1.25746,5.66968 2.35771,-8.31553 2.20054,5.2917 2.51492,2.45686 2.35775,-7.37058 4.40111,3.77978 4.55831,1.13394 1.41465,-4.72473 2.82928,4.91372 3.61518,-6.80361 2.04337,3.21281 3.14365,3.02383"
       inkscape:connector-curvature="0" />
    <path
       style="fill:none;stroke:#e9dbbd;stroke-width:0.86810595;stroke-linecap:butt;stroke-linejoin:miter;stroke-miterlimit:4;stroke-dasharray:none;stroke-opacity:1"
       d="m 62.590775,238.1281 c 5.454261,8.69291 8.513969,7.89049 8.513969,7.89049"
       id="path886"
       inkscape:connector-curvature="0" />
    <path
       style="fill:none;stroke:#e9dbbd;stroke-width:1.25646985;stroke-linecap:butt;stroke-linejoin:miter;stroke-miterlimit:4;stroke-dasharray:none;stroke-opacity:1"
       d="m 45.50087,234.07333 c 4.486562,-1.06331 3.154615,-1.79434 3.154615,-1.79434 l 2.103075,1.32914 0.771127,-1.32914 2.523694,1.52851 0.91133,-1.59496 3.435024,0.86394"
       id="path903"
       inkscape:connector-curvature="0" />
    <path
       style="fill:none;stroke:#e9dbbd;stroke-width:1.25646985;stroke-linecap:butt;stroke-linejoin:miter;stroke-miterlimit:4;stroke-dasharray:none;stroke-opacity:1"
       d="m 106.20049,234.03586 c 4.48657,-1.06331 3.15462,-1.79434 3.15462,-1.79434 l 2.10308,1.32914 0.77112,-1.32914 2.5237,1.52851 0.91133,-1.59496 3.43502,0.86394"
       id="path903-8"
       inkscape:connector-curvature="0" />
  </g>
</svg>
